<?xml version="1.0" encoding="UTF-8"?>
<svg fill="#7B746D" width="100pt" height="100pt" version="1.1" viewBox="0 0 100 100" xmlns="http://www.w3.org/2000/svg">
 <g>
  <path d="m78.848 46.285c1.2266 1.4883 3.0352 2.3789 4.9648 2.4453l0.1875 0.003906c1.8672-0.007813 3.6445-0.78516 4.9141-2.1523 0.38281-0.41797 0.35547-1.0664-0.058593-1.4492-0.41797-0.38281-1.0664-0.35937-1.4531 0.058594-0.87891 0.94141-2.1133 1.4805-3.4023 1.4883h-0.12891c-1.332-0.050782-2.582-0.66797-3.4336-1.6953-0.35938-0.4375-1.0078-0.50391-1.4453-0.14453-0.44141 0.35938-0.50391 1.0078-0.14453 1.4453z"/>
  <path d="m0.49219 54.43c0.56641 5.2539 1.832 10.41 3.7578 15.336 3.1484 8.1953 8.6875 15.254 15.898 20.266 7.4141 5.0469 16.152 7.7969 25.117 7.8984 4.6719 0.042968 9.3047-0.87109 13.609-2.6836 3.4492-1.5156 6.668-3.5078 9.5586-5.9258 1.3867-1.1484 2.6211-2.4727 3.668-3.9375 0.94141-1.2617 1.4883-2.7734 1.5625-4.3438 0-0.34375-0.035156-0.6875-0.10156-1.0273v-0.003907 0.003907c-0.23438-1.0508-0.74609-2.0156-1.4844-2.7969-0.73828-0.82031-1.707-1.3945-2.7812-1.6523-0.88672-0.19922-1.8164-0.097656-2.6406 0.28125-0.94922 0.47266-1.8008 1.1172-2.5078 1.8984-2.3203 2.3945-4.6836 5.9688-8.8047 8.3711h-0.003906c-3.3203 1.8594-7.0781 2.7969-10.887 2.7148-4.2656-0.066406-8.4844-0.88672-12.465-2.4258-5.1133-1.8516-9.5938-5.1094-12.938-9.3945 2.3828 1.6016 4.9297 2.9375 7.6055 3.9805 4.0859 1.5859 8.4336 2.4062 12.816 2.418h0.21094c2.4336 0.074219 4.8555-0.32031 7.1367-1.168 0.625-0.25391 1.2188-0.58594 1.7617-0.98438 0.31641-0.23828 0.60547-0.50781 0.86719-0.80859 1.0078-1.1094 1.6016-2.5312 1.6914-4.0312v-0.003906l0.003906-0.21484-0.003906 0.003907c-0.007813-1.2695-0.35547-2.5117-1.0039-3.6016-0.71484-1.2539-1.9336-2.1445-3.3477-2.4453-0.31641-0.058594-0.63672-0.089844-0.95703-0.089844-1.9219 0.046875-3.6992 1.0352-4.7461 2.6484-1.5742-0.10938-3.0742-0.71875-4.2734-1.7422-1.0938-0.88672-1.7656-2.1953-1.8477-3.6016v-0.042969c0.019531-0.88281 0.28906-1.7461 0.76953-2.4883 0.48828-0.78906 1.1641-1.4453 1.9688-1.9102 0.28125-0.15625 0.58203-0.28125 0.89453-0.36719 0.69531-0.19141 1.4141-0.28906 2.1328-0.28516h0.10547c2.2266 0.039062 4.418 0.57422 6.4102 1.5703 1.9922 0.89062 3.5977 2.4648 4.5234 4.4414 0.22656 0.64453 0.42188 1.2969 0.58203 1.9609 0.25391 0.89062 0.67969 1.7266 1.25 2.457 0.42188 0.57031 0.91016 1.0898 1.4492 1.5508 0.81641 0.69141 1.8086 1.1445 2.8633 1.3125 0.28516 0.042969 0.57031 0.066406 0.85547 0.066406 1.9102-0.035156 3.707-0.90625 4.918-2.3867 0.96875-1.2188 1.4805-2.7344 1.4492-4.2891 0.003906-0.60938-0.0625-1.2148-0.19531-1.8047v-0.003906h-0.003906c-0.45703-1.7656-1.4609-3.3438-2.8633-4.5117-1.4492-1.2227-2.9961-2.3281-4.6289-3.2969-1.4961-0.95312-2.7344-1.5781-3.7266-2.2305-0.99609-0.61719-1.8438-1.4453-2.4883-2.4258-0.45703-0.58984-0.73438-1.3008-0.78906-2.0469 0-0.11328 0.007813-0.22656 0.027344-0.33594v-0.003906h0.003906c0.12109-0.57812 0.42969-1.0977 0.875-1.4805 0.15234-0.13672 0.30859-0.26562 0.47656-0.37891 1.0586 1.7266 2.3398 3.3047 3.8086 4.6992 4.9023 4.4922 11.324 6.9609 17.973 6.9219 2.2852 0 4.5586-0.30078 6.7656-0.89844-0.32422 0.95312-0.92578 1.7812-1.7305 2.3828-0.67578 0.4375-1.4453 0.71094-2.2422 0.78906-0.48828 0.082031-0.96484 0.20703-1.4258 0.37891-0.57812 0.21875-1.1055 0.54687-1.5625 0.96094h0.003906c-0.39844 0.35938-0.74219 0.76562-1.0352 1.2148-0.54688 0.80859-0.84375 1.7578-0.85938 2.7344 0 0.12109 0.003907 0.24219 0.015625 0.36328 0.089844 0.96484 0.46484 1.8789 1.0781 2.6289 0.52734 0.65234 1.1875 1.1797 1.9336 1.5508 0.71875 0.34375 1.5078 0.51563 2.3008 0.51172 1.0469-0.023437 2.0742-0.25 3.0352-0.66406 0.70313-0.30078 1.3867-0.64453 2.0469-1.0391 1.6211-0.96094 3.0195-2.2617 4.0898-3.8125 1.4141-2.0898 2.4414-4.418 3.0391-6.8672 0.39844-1.5586 0.67578-3.1445 0.82422-4.7461 0.039063-0.46484-0.24609-0.89844-0.6875-1.0469 0.67578-0.58203 1.3164-1.207 1.918-1.8711 1.6211 1.0977 3.3203 2.0742 5.0859 2.9219 0.51172 0.24219 1.125 0.027344 1.3672-0.48438 0.24609-0.51172 0.027344-1.125-0.48438-1.3711-1.6211-0.77734-3.1875-1.668-4.6797-2.6719 0.40625-0.55469 0.78125-1.1211 1.1289-1.6953 1.7109 0.54688 3.418 1.0898 5.125 1.6367l0.003906-0.003906c0.53906 0.17578 1.1172-0.125 1.2891-0.66406 0.17578-0.53906-0.125-1.1172-0.66406-1.2891-1.582-0.50391-3.1602-1.0078-4.7383-1.5117 0.28516-0.57812 0.55469-1.1562 0.79688-1.7422l-0.003906-0.003906c1.375-3.6367 2.3398-7.418 2.8789-11.27v-0.003907c0.21094-1.4023 0.30859-2.8164 0.29688-4.2305 0.027344-3.6484-0.61328-7.2656-1.8906-10.684-0.30469-0.85938-0.71875-1.6758-1.2305-2.4297-0.23438-0.33203-0.51953-0.62891-0.84766-0.87891-0.49609-0.37891-1.1055-0.58203-1.7344-0.58203-0.67969 0.015625-1.3398 0.21484-1.918 0.57422-0.99609 0.63281-1.8672 1.4453-2.5625 2.4023-0.73828 0.97266-1.3906 2.0078-1.957 3.0898-1.5391-0.47266-3.1172-0.89453-4.7266-1.2539-1.8984-3.9883-4.5469-7.5742-7.8008-10.559-4.4883-3.9883-9.8867-6.8125-15.719-8.2305-3.9766-1.0938-8.082-1.6406-12.207-1.625-1.3711 0-2.8242 0.058594-4.3398 0.19922-7.457 0.67969-14.648 3.1172-20.984 7.1172-6.9531 4.4609-12.551 10.738-16.191 18.152-2.9414 6.1055-4.4492 12.801-4.4062 19.574 0.011719 2.4453 0.17578 4.8906 0.49219 7.3164zm85.941 9.4141 0.003906-0.003906c-0.51172 1.4648-1.2148 2.8555-2.0977 4.1328-0.89844 1.3125-2.0703 2.4102-3.4375 3.2227-0.57812 0.34375-1.1797 0.65234-1.7969 0.91406-0.71484 0.3125-1.4805 0.48438-2.2578 0.51172-0.48438 0.007812-0.96484-0.097656-1.4023-0.30469-0.47656-0.23828-0.89453-0.57422-1.2305-0.98828-0.35547-0.42969-0.57812-0.95312-0.63281-1.5117l-0.007812-0.19531c0.015625-0.57812 0.19922-1.1367 0.52734-1.6133 0.19141-0.29687 0.42188-0.56641 0.68359-0.80859 0.26953-0.25 0.58203-0.44141 0.92578-0.57422 0.56641-0.17969 1.1445-0.3125 1.7305-0.40234 0.85547-0.16016 1.668-0.50391 2.3867-1.0039 1.3203-0.99219 2.2734-2.3984 2.6953-3.9961 0.074218-0.24609 0.054687-0.51172-0.058594-0.74219 1.543-0.57422 3.0234-1.3164 4.4062-2.2109 0.32812-0.21484 0.62891-0.44531 0.94141-0.67188-0.21094 2.1289-0.67188 4.2227-1.375 6.2422zm-80.18-35.406c3.4766-7.0781 8.8203-13.07 15.457-17.324 6.0586-3.8203 12.93-6.1484 20.059-6.7969 1.4531-0.13672 2.8398-0.19141 4.1523-0.19141 3.9375-0.015625 7.8555 0.50391 11.652 1.5469 5.5234 1.332 10.637 4 14.887 7.7695 2.6719 2.4453 4.9062 5.3281 6.6211 8.5195-5.0391-0.91797-10.141-1.4531-15.258-1.6055-0.19141-1.3125-0.46484-2.6133-0.82031-3.8945-0.18359-0.66406-0.46484-1.2969-0.83203-1.8828-0.35938-0.58594-0.91406-1.0312-1.5664-1.25-0.24219-0.074219-0.49219-0.10938-0.74219-0.10938-0.69922 0.023438-1.375 0.24219-1.957 0.62891-0.92188 0.59766-1.7578 1.3242-2.4805 2.1523-1.3984 1.5352-2.6289 3.2188-3.6641 5.0195-0.28516 0.49219-0.11719 1.1211 0.37109 1.4062 0.49219 0.28125 1.1211 0.11719 1.4023-0.375 0.96484-1.6719 2.1016-3.2344 3.3984-4.6602 0.59375-0.68359 1.2773-1.2852 2.0352-1.7852 0.26172-0.1875 0.57422-0.30469 0.89453-0.33594l0.14062 0.019531c0.10156 0.03125 0.25391 0.12109 0.45703 0.42188v0.003906c0.40234 0.71484 0.68359 1.4961 0.83203 2.3047 0.23828 1.0273 0.43359 2.2461 0.64062 3.4961 0.078125 0.48438 0.49219 0.84766 0.98438 0.85938 5.8945 0.125 11.762 0.77734 17.539 1.9531 0.19531 0.12109 0.42969 0.17188 0.66406 0.14062 1.875 0.41797 3.707 0.90234 5.4609 1.4727v-0.003906c0.48438 0.15625 1.0078-0.066406 1.2344-0.51953 0.73438-1.5742 1.6914-3.0352 2.8398-4.3359 0.37109-0.41406 0.80078-0.76953 1.2734-1.0625 0.26172-0.17188 0.56641-0.27344 0.88281-0.29297l0.17578 0.019532v-0.003906c0.12109 0.03125 0.23438 0.082031 0.33203 0.16016 0.26563 0.22266 0.48828 0.49219 0.64844 0.80078 0.28906 0.51562 0.53516 1.0508 0.74219 1.6016 1.1836 3.1797 1.7773 6.5508 1.75 9.9414 0.011718 1.3008-0.078126 2.6016-0.26563 3.8867v-0.003906c-0.51562 3.7031-1.4375 7.3398-2.7539 10.84-1.5039 3.9141-4.1914 7.2617-7.6875 9.5781-3.6328 2.3047-7.8516 3.5039-12.148 3.457-6.125 0.039063-12.039-2.2305-16.562-6.3594-5.9414-5.6055-6.8086-13.066-6.9883-15.336h0.003906c-0.046875-0.5625-0.54297-0.98438-1.1055-0.94141-0.56641 0.046874-0.98828 0.54297-0.94141 1.1055 0.027343 0.3125 0.0625 0.72266 0.12109 1.2031v0.003907c-1.4922-0.24609-3-0.37109-4.5117-0.37109-0.29297 0-0.58594 0.003906-0.875 0.015625v-0.003907c-0.27344 0.007813-0.53125 0.125-0.71875 0.32422s-0.28906 0.46094-0.28125 0.73438c0.011718 0.27344 0.12891 0.53125 0.32812 0.71875s0.46094 0.28516 0.73438 0.27734c0.26953-0.007812 0.53906-0.011719 0.8125-0.011719v-0.003906c1.6328 0.003906 3.2578 0.16016 4.8633 0.46484 0.10156 0.50391 0.22266 1.0391 0.37109 1.6094-1.5469 0.13672-3.0938 0.27734-4.6367 0.41406-0.56641 0.050782-0.98047 0.55078-0.92969 1.1133 0.046876 0.5625 0.54688 0.98047 1.1094 0.92969 1.6875-0.15234 3.375-0.30078 5.0625-0.45312v0.003906c0.38281 1.0938 0.83594 2.1602 1.3594 3.1953-0.30469 0.19922-0.59375 0.42188-0.86328 0.66797-0.77734 0.6875-1.3086 1.6133-1.5078 2.6328-0.042969 0.23047-0.0625 0.46484-0.0625 0.69922 0.054687 1.1445 0.44531 2.25 1.1289 3.1758 0.79688 1.2148 1.8477 2.2422 3.0781 3.0117 1.1367 0.74219 2.3438 1.3516 3.75 2.2461 1.5312 0.91016 2.9883 1.9453 4.3555 3.0898 1.0898 0.88672 1.8711 2.0938 2.2383 3.4492 0.097656 0.44141 0.14844 0.89453 0.14844 1.3477 0.027343 1.0781-0.32031 2.1367-0.98438 2.9883-0.82031 1-2.0391 1.5977-3.332 1.6328-0.18359 0-0.36719-0.015625-0.54688-0.042969-0.6875-0.10938-1.3359-0.41016-1.8633-0.86328-0.42188-0.36328-0.80078-0.77344-1.1289-1.2227-0.41797-0.53125-0.72656-1.1367-0.91016-1.7891-0.17578-0.72656-0.39062-1.4414-0.64844-2.1445-1.1094-2.4414-3.0625-4.3945-5.5039-5.5039-2.2773-1.1445-4.7852-1.7539-7.332-1.793h-0.125v0.003906c-0.91016-0.003906-1.8164 0.12109-2.6914 0.36719-0.46094 0.12891-0.90625 0.3125-1.3242 0.54688-1.1055 0.63281-2.0312 1.5312-2.7031 2.6094-0.6875 1.0703-1.0625 2.3086-1.082 3.5781v0.066406c0.085938 1.9922 1.0117 3.8516 2.5508 5.1211 1.7148 1.4727 3.8984 2.2812 6.1602 2.2852 0.38281 0.003906 0.73828-0.20312 0.91797-0.54297 0.62891-1.2578 1.8906-2.0781 3.293-2.1406 0.1875 0 0.375 0.019531 0.5625 0.054688 0.84766 0.1875 1.5703 0.73047 1.9844 1.4922 0.45312 0.76953 0.69922 1.6445 0.71094 2.5391l-0.003906 0.14453v-0.003906c-0.070313 1.0234-0.48828 1.9961-1.1797 2.7539-0.16797 0.19141-0.35547 0.36719-0.5625 0.51953-0.85938 0.64844-2.9141 1.707-7.6719 1.7383h-0.19922c-4.1289-0.011718-8.2266-0.78516-12.078-2.2773-3.9922-1.5547-7.6836-3.7891-10.914-6.6016-0.10547-0.089844-0.22656-0.16016-0.35547-0.20312-1.457-3-2.375-6.2305-2.7227-9.5469-0.058594-0.5625-0.5625-0.97266-1.125-0.91406s-0.97266 0.5625-0.91797 1.125c0.55469 5.4023 2.543 10.562 5.7617 14.938 3.5977 4.7812 8.5078 8.4102 14.129 10.449 4.2148 1.6289 8.6875 2.4961 13.203 2.5625 4.1719 0.082032 8.2891-0.95312 11.926-2.9961 2.9219-1.8516 5.5078-4.1953 7.6367-6.9219 0.75-0.92578 1.5703-1.7891 2.457-2.5859 0.30859-0.26172 0.65234-0.48438 1.0195-0.65625 0.42578-0.20312 0.90625-0.25781 1.3672-0.15234 0.66406 0.16797 1.2617 0.53125 1.7148 1.043 0.48047 0.50781 0.81641 1.1328 0.97656 1.8125 0.039063 0.19922 0.058594 0.40625 0.058594 0.61328-0.078125 1.1562-0.49609 2.2656-1.2031 3.1875-1.5195 2.0273-3.3633 3.7891-5.4609 5.207-2.1523 1.543-4.4609 2.8594-6.8828 3.9297-4.0508 1.6992-8.4023 2.5547-12.797 2.5117-8.5508-0.10156-16.887-2.7266-23.957-7.5391-6.875-4.7812-12.156-11.516-15.152-19.336-1.8594-4.7539-3.0781-9.7383-3.625-14.816-0.30469-2.3438-0.46484-4.707-0.47656-7.0703-0.042969-6.4648 1.3945-12.852 4.1992-18.676z"/>
  <path d="m55.617 43.836c1.1602 1.7344 3.1016 2.7812 5.1875 2.793h0.035156c2.0977-0.027344 4.043-1.0977 5.1914-2.8555 0.30469-0.47656 0.16406-1.1094-0.3125-1.4141-0.47656-0.30859-1.1094-0.17188-1.4141 0.30469-0.77344 1.1719-2.0742 1.8867-3.4766 1.9141h0.003906-0.027343c-1.3945-0.019531-2.6914-0.71875-3.4727-1.8711-0.14844-0.23047-0.38281-0.39062-0.65234-0.44922-0.26563-0.054687-0.54688-0.003906-0.77734 0.14844-0.22656 0.15234-0.38672 0.38672-0.44141 0.65625-0.050782 0.26953 0.003906 0.54688 0.15625 0.77344z"/>
  <path d="m70.496 51.066c0.53906-0.51172 1.0742-1.0234 1.6094-1.5391 0.50391 0.62109 0.99609 1.2461 1.5352 1.8359l-0.003906 0.003907c0.38281 0.41797 1.0312 0.44922 1.4531 0.070312 0.41797-0.38281 0.45312-1.0312 0.070312-1.4531-0.75391-0.83203-1.4727-1.6914-2.1562-2.582-0.17969-0.23047-0.44531-0.375-0.73438-0.39844-0.29297-0.019531-0.57812 0.082032-0.78906 0.28125-0.80078 0.76562-1.6016 1.5312-2.4023 2.2969-0.41016 0.39062-0.42578 1.043-0.035156 1.4531 0.39453 0.41016 1.043 0.42188 1.4531 0.03125z"/>
 </g>
</svg>
